<?xml version="1.0" encoding="UTF-8" standalone="no"?>
<svg
   width="134.75543pt"
   height="241.10379pt"
   viewBox="0 0 134.75543 241.10379"
   version="1.1"
   id="svg9"
   xmlns="http://www.w3.org/2000/svg"
   xmlns:svg="http://www.w3.org/2000/svg">
  <defs
     id="defs2">
    <clipPath
       id="clip-0">
      <path
         clip-rule="nonzero"
         d="M 15,0 H 98 V 241.10156 H 15 Z m 0,0"
         id="path1" />
    </clipPath>
    <clipPath
       id="clip-1">
      <path
         clip-rule="nonzero"
         d="M 15,119 H 62 V 241.10156 H 15 Z m 0,0"
         id="path2" />
    </clipPath>
  </defs>
  <path
     fill="none"
     stroke-width="2.98883"
     stroke-linecap="round"
     stroke-linejoin="round"
     stroke="#000000"
     stroke-opacity="1"
     stroke-miterlimit="10"
     d="M 53.889922,120.55301 C 90.628204,87.974884 103.41727,49.599884 93.573516,1.494418"
     id="path3" />
  <g
     clip-path="url(#clip-0)"
     id="g4"
     transform="translate(-2.7936713,0.00222804)">
    <path
       fill="none"
       stroke-width="2.98883"
       stroke-linecap="round"
       stroke-linejoin="round"
       stroke="#000000"
       stroke-opacity="1"
       stroke-miterlimit="10"
       d="M 39.685187,119.05881 -39.685906,-119.05837"
       transform="matrix(1,0,0,-1,56.682,120.551)"
       id="path4" />
  </g>
  <g
     clip-path="url(#clip-1)"
     id="g5"
     transform="translate(-2.7936713,0.00222804)">
    <path
       fill="none"
       stroke-width="2.98883"
       stroke-linecap="round"
       stroke-linejoin="round"
       stroke="#000000"
       stroke-opacity="1"
       stroke-miterlimit="10"
       d="M -39.685906,-119.05837 C -2.947625,-86.48025 9.845344,-48.10525 0.00159375,2.1875e-4"
       transform="matrix(1,0,0,-1,56.682,120.551)"
       id="path5" />
  </g>
  <path
     fill="none"
     stroke-width="2.98883"
     stroke-linecap="round"
     stroke-linejoin="round"
     stroke="#000000"
     stroke-opacity="1"
     stroke-miterlimit="10"
     d="M 53.870391,122.33817 C 57.483673,116.07645 48.878204,104.33426 34.639923,96.115509 20.405548,87.896759 5.9328907,86.310822 2.3157037,92.576447 c -3.617188,6.261718 4.992187,18.003903 19.2304693,26.222653 14.234375,8.21875 28.707031,9.80469 32.324218,3.53907 z m 0,0"
     id="path6" />
  <path
     fill="none"
     stroke-width="2.98883"
     stroke-linecap="round"
     stroke-linejoin="round"
     stroke="#000000"
     stroke-opacity="1"
     stroke-miterlimit="10"
     d="m 53.889922,120.55301 c 24.050782,-4.92188 43.238282,1.47266 59.527348,19.84375"
     id="path7" />
  <path
     fill="none"
     stroke-width="2.98883"
     stroke-linecap="round"
     stroke-linejoin="round"
     stroke="#000000"
     stroke-opacity="1"
     stroke-miterlimit="10"
     d="m 112.00711,140.99832 c -1.6875,-4.63672 -5.97656,-7.32812 -9.58203,-6.01562 -3.601564,1.3125 -5.156251,6.13281 -3.472657,10.76562 1.687497,4.63281 5.976557,7.32813 9.582027,6.01563 3.60547,-1.3125 5.16016,-6.13282 3.47266,-10.76563 z m 0,0"
     id="path8" />
  <path
     fill="none"
     stroke-width="2.98883"
     stroke-linecap="round"
     stroke-linejoin="round"
     stroke="#000000"
     stroke-opacity="1"
     stroke-miterlimit="10"
     d="m 113.41727,140.39676 c 2.84375,10.61328 9.23046,17 19.84375,19.84375"
     id="path9" />
</svg>
